# Blender v2.80 (sub 75) OBJ File: ''
# www.blender.org
g octahedron
v 0.000000 0.000002 -0.000000
v 1.000000 1.000002 0.000000
v 0.000000 1.000002 1.000000
v -1.000000 1.000002 0.000000
v 0.000000 2.000002 0.000000
v 0.000000 1.000002 -1.000000
vn 0.5774 -0.5774 0.5774
vn -0.5774 -0.5774 0.5774
vn -0.5774 0.5774 0.5774
vn 0.5774 0.5774 0.5774
vn 0.5774 -0.5774 -0.5774
vn -0.5774 -0.5774 -0.5774
vn -0.5774 0.5774 -0.5774
vn 0.5774 0.5774 -0.5774
s off
f 1//1 2//1 3//1
f 4//2 1//2 3//2
f 5//3 4//3 3//3
f 2//4 5//4 3//4
f 2//5 1//5 6//5
f 1//6 4//6 6//6
f 4//7 5//7 6//7
f 5//8 2//8 6//8
